<?xml version="1.0" standalone="no"?>
<!DOCTYPE svg PUBLIC "-//W3C//DTD SVG 20010904//EN"
 "http://www.w3.org/TR/2001/REC-SVG-20010904/DTD/svg10.dtd">
<svg version="1.0" xmlns="http://www.w3.org/2000/svg"
 width="2000.000000pt" height="2000.000000pt" viewBox="0 0 2000.000000 2000.000000"
 preserveAspectRatio="xMidYMid meet">

<g transform="translate(0.000000,2000.000000) scale(0.100000,-0.100000)"
fill="#000000" stroke="none">
<path d="M8312 18744 c-12 -8 -22 -21 -22 -27 0 -7 35 -82 78 -167 459 -909
725 -3580 576 -5790 -63 -941 -228 -1688 -411 -1863 l-29 -27 -63 80 c-85 108
-310 324 -457 438 -486 380 -1130 698 -1728 852 -192 50 -324 74 -506 96 -256
29 -604 8 -746 -46 l-27 -10 6 -193 c4 -146 10 -211 25 -272 72 -282 230 -576
472 -880 122 -153 457 -491 620 -626 368 -305 729 -539 1155 -749 226 -111
391 -182 548 -236 93 -32 129 -56 183 -122 57 -70 82 -119 94 -185 16 -83 81
-203 167 -304 134 -158 166 -210 216 -348 57 -161 119 -445 133 -612 8 -100
-11 -380 -37 -538 -16 -98 -19 -147 -14 -270 10 -245 35 -346 145 -565 91
-183 172 -369 177 -409 4 -32 -1 -44 -37 -91 -55 -70 -131 -150 -145 -150 -5
0 -25 -13 -43 -28 -32 -27 -32 -27 -22 -82 29 -159 178 -350 403 -518 95 -71
154 -140 179 -209 30 -86 35 -230 13 -342 -18 -85 -18 -91 -1 -134 49 -128
365 -337 602 -397 105 -27 263 -27 368 0 237 60 553 269 602 397 17 43 17 49
-1 134 -22 112 -17 256 13 342 25 69 84 138 179 209 225 168 374 359 403 518
10 55 10 55 -22 82 -18 15 -38 28 -43 28 -14 0 -90 80 -145 150 -36 47 -41 59
-37 91 5 40 86 226 177 409 110 219 135 320 145 565 5 123 2 172 -14 270 -26
158 -45 438 -37 538 14 167 76 451 133 612 50 138 82 190 216 348 86 101 151
221 167 304 12 66 37 115 94 185 54 66 90 90 183 122 157 54 322 125 548 236
426 210 787 444 1155 749 163 135 498 473 620 626 242 304 400 598 472 880 15
61 21 126 25 272 l6 193 -27 10 c-142 54 -490 75 -746 46 -452 -53 -906 -192
-1385 -425 -453 -220 -809 -462 -1106 -748 -75 -73 -165 -169 -200 -213 l-63
-80 -29 27 c-67 65 -143 230 -202 441 -257 923 -326 2856 -165 4627 112 1217
297 2120 532 2585 43 85 78 161 78 167 0 7 -11 20 -25 29 -22 14 -27 14 -57
-2 -18 -9 -40 -20 -48 -24 -41 -19 -200 -282 -335 -555 -473 -956 -893 -2423
-1100 -3845 -89 -613 -126 -1083 -126 -1592 0 -449 27 -740 91 -995 17 -65 30
-125 30 -135 0 -9 3 -18 8 -20 6 -3 71 -140 76 -163 7 -30 40 -76 76 -106 23
-19 58 -47 77 -64 133 -110 193 -352 135 -540 -66 -217 -277 -369 -508 -367
-150 0 -262 48 -369 156 -117 118 -161 235 -153 405 7 146 66 270 184 385 170
167 266 480 304 989 14 189 14 709 0 937 -102 1684 -600 3712 -1215 4955 -135
273 -294 536 -335 555 -8 4 -29 15 -47 24 -38 19 -34 19 -61 0z m416 -759
c187 -402 404 -995 547 -1496 30 -107 62 -216 70 -242 25 -82 153 -598 194
-784 83 -376 139 -681 216 -1173 16 -105 61 -469 70 -570 3 -36 8 -78 10 -95
34 -202 56 -1030 36 -1310 -20 -264 -60 -504 -113 -665 -29 -90 -84 -197 -107
-210 -35 -18 -85 -11 -174 25 -48 19 -93 35 -102 35 -16 0 -114 -118 -115
-138 0 -7 25 -47 55 -87 30 -41 55 -79 55 -84 0 -4 -9 -29 -20 -54 -18 -40
-25 -47 -58 -52 -20 -4 -66 -12 -102 -18 l-65 -12 -7 -45 c-4 -25 -10 -66 -14
-91 l-6 -46 96 -33 c54 -19 101 -41 105 -49 5 -9 12 -37 15 -64 l7 -47 -70
-66 c-39 -37 -71 -73 -71 -81 0 -15 67 -153 75 -153 2 0 48 10 101 21 l96 21
35 -33 c52 -51 53 -57 33 -144 -28 -118 -29 -116 45 -158 35 -20 70 -37 77
-37 7 0 43 30 79 66 l67 67 54 -7 c29 -4 59 -10 65 -14 7 -4 27 -50 45 -102
l33 -95 80 3 c46 2 85 8 91 15 6 7 19 52 29 101 16 79 21 90 49 107 48 29 83
33 110 12 13 -10 49 -38 79 -62 l57 -43 70 52 c38 28 70 58 70 66 0 7 -13 47
-30 89 -37 93 -37 111 -1 154 l28 34 94 -10 c52 -5 99 -8 106 -5 11 3 63 142
63 168 0 5 -36 37 -80 69 -77 57 -80 60 -80 99 0 23 4 46 8 52 4 6 45 30 91
53 l83 42 -6 47 c-3 26 -12 70 -19 97 l-12 50 -95 8 c-52 4 -100 9 -105 11 -6
2 -19 20 -30 39 l-19 35 48 82 c33 57 46 89 42 104 -3 13 -33 48 -66 80 l-60
57 -62 -36 c-67 -39 -129 -69 -165 -79 -20 -6 -26 1 -56 61 -85 169 -142 440
-168 798 -20 280 2 1108 36 1310 2 17 7 59 10 95 9 101 54 465 70 570 77 492
133 797 216 1173 41 186 169 702 194 784 8 26 40 135 70 242 60 210 206 653
279 849 113 302 326 796 356 826 5 5 1 -22 -11 -60 -33 -112 -95 -377 -133
-561 -341 -1664 -406 -4354 -141 -5825 75 -420 173 -716 286 -864 21 -28 39
-54 39 -58 0 -7 -441 -609 -465 -635 -11 -11 -19 -1 -50 54 -21 37 -43 68 -49
71 -6 2 -49 -6 -96 -19 l-85 -22 -5 -105 -5 -105 -42 -23 -42 -23 -80 41 c-44
22 -89 40 -99 40 -16 0 -45 -26 -111 -102 l-23 -26 52 -82 c51 -79 52 -82 41
-118 -23 -68 -30 -72 -137 -83 -54 -5 -101 -12 -104 -16 -13 -16 -42 -165 -34
-173 5 -5 43 -23 84 -40 103 -44 110 -51 110 -120 l0 -57 -75 -59 c-41 -32
-75 -62 -75 -66 0 -4 4 -18 10 -32 8 -22 2 -35 -52 -108 -33 -46 -62 -85 -64
-87 -4 -5 -16 9 -60 71 l-27 38 22 52 22 53 -33 28 c-18 16 -52 45 -75 64 -40
33 -43 39 -43 83 0 26 6 52 13 57 6 5 50 25 96 44 l83 34 -6 75 c-10 123 -5
116 -104 130 -100 15 -124 26 -142 69 -12 29 -10 34 45 115 66 97 67 87 -21
184 l-49 53 -88 -41 c-80 -38 -92 -41 -117 -30 -48 20 -53 33 -54 142 l-1 101
-60 22 c-122 46 -115 48 -176 -49 -52 -83 -55 -86 -91 -86 -35 0 -40 4 -85 71
-26 39 -62 87 -79 108 -46 53 -374 499 -374 507 0 4 18 30 39 58 191 250 336
919 406 1871 63 860 57 1961 -15 2925 -74 983 -214 1890 -379 2454 -12 38 -16
65 -11 60 5 -5 44 -85 88 -179z m-3053 -5745 c719 -67 1589 -427 2235 -926
139 -107 413 -377 501 -494 36 -47 73 -86 84 -88 13 -2 234 -292 645 -848 344
-466 665 -900 713 -965 l88 -119 59 0 59 0 88 119 c48 65 369 499 713 965 411
556 632 846 645 848 11 2 48 41 84 88 88 117 362 387 501 494 829 640 2018
1039 2719 911 119 -21 119 -19 -14 -56 -128 -35 -411 -134 -556 -195 -981
-411 -1900 -1139 -2596 -2054 -953 -1254 -1365 -2712 -1098 -3885 30 -132 30
-127 4 -210 -30 -97 -73 -139 -221 -216 -66 -35 -142 -79 -167 -99 -48 -38
-122 -141 -142 -198 -14 -40 -24 -40 -38 0 -20 57 -94 160 -142 198 -25 20
-101 64 -167 99 -148 77 -191 119 -221 216 -26 83 -26 78 4 210 165 724 73
1567 -262 2414 -607 1537 -1928 2894 -3432 3525 -145 61 -428 160 -556 195
-102 28 -109 30 -103 36 4 5 143 29 213 38 64 8 255 7 360 -3z m-487 -175
c642 -182 1315 -537 1917 -1014 354 -279 709 -629 1026 -1011 212 -254 499
-680 664 -985 l49 -90 -60 58 c-118 117 -331 238 -489 281 -33 8 -94 20 -136
26 -93 12 -319 86 -535 175 -1220 504 -2299 1499 -2508 2313 -29 113 -41 272
-19 272 2 0 43 -11 91 -25z m9726 1 c7 -29 -10 -170 -30 -248 -209 -814 -1288
-1809 -2508 -2313 -216 -89 -442 -163 -535 -175 -42 -6 -103 -18 -136 -26
-158 -43 -371 -164 -489 -281 l-60 -58 49 90 c130 241 327 544 507 783 213
282 387 480 659 747 325 319 591 537 949 775 427 285 892 513 1340 657 260 84
246 81 254 49z m-5552 -2208 c146 -77 268 -266 268 -417 l0 -44 -148 199
c-245 331 -229 308 -201 299 13 -4 50 -21 81 -37z m1326 -30 c-43 -62 -230
-313 -240 -323 -7 -7 -8 -2 -3 15 38 128 104 227 196 295 34 25 63 45 66 45 2
0 -6 -15 -19 -32z m-2265 -688 c123 -62 233 -137 287 -196 42 -46 44 -64 7
-64 -18 0 -19 -2 -7 -10 12 -7 8 -10 -15 -10 -16 0 -41 -7 -55 -15 -33 -19
-88 -19 -124 0 -15 8 -39 15 -53 15 -13 0 -22 4 -19 9 3 5 -8 11 -25 15 -17 3
-28 10 -24 16 3 5 -1 10 -9 10 -9 0 -16 5 -16 11 0 7 -11 22 -24 34 -14 13
-22 26 -19 29 4 3 1 6 -6 6 -8 0 -11 7 -7 15 3 8 1 15 -5 15 -6 0 -8 4 -4 9 3
5 1 12 -4 15 -5 4 -8 17 -6 31 1 14 -1 25 -5 25 -4 0 -5 15 -3 33 3 17 5 38 6
45 1 21 26 14 130 -38z m3290 36 c5 -14 2 -119 -5 -146 -22 -84 -114 -166
-214 -190 -44 -11 -60 -11 -118 5 -36 10 -66 22 -66 26 0 5 -6 9 -14 9 -7 0
-19 7 -26 15 -11 13 -8 21 21 51 65 68 219 168 339 219 64 28 76 30 83 11z
m-2705 -553 c202 -458 332 -907 393 -1358 26 -194 36 -588 20 -775 -24 -267
-83 -545 -132 -622 -82 -127 -24 -390 118 -539 63 -66 161 -141 209 -159 16
-6 64 -34 107 -62 70 -46 80 -57 109 -117 17 -36 37 -79 45 -95 l15 -29 -73 6
c-389 34 -961 405 -1077 698 l-15 39 70 73 c263 272 438 667 498 1120 19 151
20 431 0 581 -70 532 -329 921 -693 1041 -50 16 -55 21 -78 73 -13 30 -23 56
-22 57 2 1 42 7 90 13 57 7 105 20 140 38 56 28 150 97 182 133 11 11 22 21
26 21 5 0 35 -62 68 -137z m2078 116 c32 -36 126 -105 182 -133 35 -18 83 -31
140 -38 48 -6 88 -12 90 -13 1 -1 -9 -27 -22 -57 -23 -52 -28 -57 -78 -73
-364 -120 -623 -509 -693 -1041 -20 -150 -19 -430 0 -581 60 -453 235 -848
498 -1120 l70 -73 -15 -39 c-116 -293 -688 -664 -1077 -698 l-73 -6 15 29 c8
16 28 59 45 95 29 60 39 71 109 117 43 28 91 56 107 62 48 18 146 93 209 159
142 149 200 412 118 539 -49 77 -108 355 -132 622 -16 187 -6 581 20 775 61
451 191 900 393 1358 33 75 63 137 68 137 4 0 15 -10 26 -21z m-2367 -482 c80
-48 191 -160 257 -261 142 -220 220 -497 231 -827 12 -348 -59 -700 -200 -993
l-52 -109 -44 94 c-24 52 -77 163 -118 247 -66 136 -129 292 -118 292 3 0 0
12 -6 28 -6 15 -14 79 -19 142 -6 97 -4 136 15 250 62 365 62 528 5 860 -18
101 -61 285 -77 327 -5 12 0 12 33 -2 22 -9 63 -30 93 -48z m2665 -32 c-14
-49 -36 -149 -49 -220 -63 -345 -63 -513 0 -885 19 -114 21 -153 15 -250 -5
-63 -13 -127 -19 -142 -6 -16 -9 -28 -6 -28 11 0 -52 -156 -118 -292 -41 -84
-94 -195 -118 -247 l-44 -94 -52 109 c-98 203 -168 461 -194 713 -14 141 -7
411 16 536 64 360 208 640 408 791 53 40 176 108 183 101 1 -1 -9 -42 -22 -92z
m-1849 -3393 c141 -47 309 -73 465 -73 215 0 434 47 628 137 47 21 72 29 69
20 -32 -82 -34 -322 -4 -403 l16 -42 -37 -45 c-99 -122 -349 -270 -527 -312
-77 -18 -213 -18 -290 0 -178 42 -428 190 -527 312 l-37 45 16 42 c30 81 28
321 -4 403 -3 9 22 1 69 -20 40 -19 114 -47 163 -64z"/>
<path d="M11256 10819 c-17 -25 -12 -45 16 -60 15 -8 24 -7 39 7 23 21 24 37
3 58 -21 22 -40 20 -58 -5z"/>
<path d="M8720 10770 c-23 -44 29 -80 64 -44 19 18 19 20 6 45 -14 25 -56 25
-70 -1z"/>
<path d="M8797 5603 c-11 -11 -8 -48 5 -61 30 -30 75 0 64 43 -5 19 -13 25
-35 25 -15 0 -31 -3 -34 -7z"/>
<path d="M11140 5595 c-10 -12 -10 -21 -2 -40 21 -45 77 -23 70 27 -4 28 -48
37 -68 13z"/>
<path d="M10568 4769 c-24 -14 -23 -56 2 -69 42 -22 82 34 48 68 -14 14 -27
15 -50 1z"/>
<path d="M9414 4746 c-15 -40 21 -80 54 -60 37 24 21 74 -25 74 -13 0 -26 -6
-29 -14z"/>
<path d="M12962 4760 c-165 -35 -298 -175 -320 -337 -31 -229 112 -425 339
-465 211 -37 424 118 462 336 30 179 -65 357 -235 436 -70 33 -173 45 -246 30z"/>
<path d="M6784 4266 c-3 -7 -4 -479 -2 -1047 4 -1152 2 -1114 75 -1323 67
-193 154 -335 292 -480 190 -197 424 -325 701 -382 105 -22 352 -25 460 -5
534 96 955 505 1059 1029 71 357 2 691 -207 1007 -66 99 -229 260 -339 333
-246 163 -482 229 -782 219 -193 -6 -337 -40 -496 -116 l-105 -50 -2 412 -3
412 -323 3 c-267 2 -323 0 -328 -12z m1423 -1407 c29 -1 50 -5 48 -9 -3 -5
-282 -5 -310 0 -5 1 0 5 13 8 22 7 140 7 249 1z m136 -48 c54 -2 26 -17 -35
-18 -207 -4 -264 -5 -268 -3 -3 1 -50 3 -105 5 -115 4 -117 4 -90 14 16 7 377
8 498 2z m7 -45 c19 -3 47 -5 63 -5 43 -1 31 -16 -15 -19 -100 -5 -519 -1
-622 7 -32 2 -9 14 36 18 24 3 44 5 45 6 3 4 460 -3 493 -7z m55 -50 c33 -2
69 -5 79 -5 27 -1 13 -13 -21 -18 -41 -6 -739 0 -753 7 -3 1 -9 2 -13 1 -5 -1
-5 3 -2 9 4 6 13 9 20 6 7 -2 25 -2 39 2 27 7 547 6 651 -2z m60 -46 c0 -1 17
-3 37 -4 20 -1 40 -4 43 -8 9 -8 -32 -21 -44 -13 -5 3 -13 1 -16 -5 -5 -8 -11
-8 -20 0 -7 6 -15 7 -18 3 -3 -4 -38 -7 -79 -6 -40 1 -211 3 -380 5 -170 2
-308 7 -308 11 0 5 -9 5 -20 2 -11 -3 -20 -4 -20 -1 0 17 105 22 445 20 209
-1 380 -3 380 -4z m40 -51 c6 -3 25 -5 43 -5 32 1 43 -8 20 -17 -7 -2 -215 -3
-463 -2 -417 2 -534 8 -465 25 29 8 851 6 865 -1z m55 -53 c14 -2 31 -4 38 -5
7 0 11 -5 8 -10 -7 -11 -987 -8 -1005 3 -12 8 -11 11 5 16 19 7 908 4 954 -4z
m40 -50 c36 -5 37 -6 14 -16 -25 -10 -992 -6 -1016 5 -10 4 -18 11 -18 15 0 7
971 4 1020 -4z m-885 -36 c0 -6 57 -4 61 2 3 5 10 5 17 1 6 -3 184 -7 396 -7
212 -1 391 -4 396 -7 6 -3 24 -5 42 -5 22 1 28 -2 22 -10 -6 -8 -161 -10 -531
-8 -288 1 -523 3 -523 4 0 1 -10 3 -22 4 -13 2 -26 6 -30 9 -6 7 5 9 74 12 18
0 35 3 37 6 4 4 61 3 61 -1z m455 -55 c542 -6 488 -4 496 -17 4 -6 2 -8 -4 -4
-6 3 -13 2 -16 -2 -5 -8 -1013 -6 -1066 2 -14 2 -28 4 -32 5 -5 0 -8 6 -8 12
0 6 6 9 14 6 8 -3 27 -2 42 2 15 4 48 6 73 4 25 -2 251 -5 501 -8z m492 -64
c8 -9 8 -11 1 -7 -6 3 -14 2 -17 -2 -5 -8 -1012 -7 -1066 2 -14 2 -34 4 -45 5
-17 1 -18 3 -5 11 10 7 213 9 567 8 457 -3 554 -5 565 -17z m-369 -34 c227 -2
361 -7 367 -13 7 -7 5 -11 -7 -13 -22 -3 -907 -3 -1013 0 -41 1 -86 5 -100 9
l-25 7 25 6 c42 11 79 12 240 10 85 -2 316 -4 513 -6z m119 -49 c186 -3 240
-6 250 -17 8 -9 9 -11 1 -7 -6 3 -14 3 -17 -2 -6 -10 -757 -9 -773 1 -6 4 -14
4 -17 -1 -5 -9 -47 -9 -63 1 -7 4 -15 3 -18 -3 -5 -8 -11 -8 -20 0 -10 8 -15
8 -20 0 -5 -8 -10 -8 -20 0 -10 8 -15 8 -20 0 -5 -8 -10 -8 -20 0 -9 8 -15 8
-20 0 -3 -6 -12 -7 -18 -3 -6 4 -25 8 -42 8 -78 4 -81 5 -62 16 9 5 21 8 26 4
5 -3 12 -2 14 2 5 8 311 8 839 1z m60 -50 c104 -2 181 -7 187 -13 14 -14 8
-15 -294 -16 -480 -2 -799 4 -814 15 -11 9 -9 12 9 16 23 5 565 4 912 -2z
m-87 -49 c127 -1 241 -5 255 -9 67 -19 -61 -26 -380 -23 -662 6 -699 8 -712
22 -11 12 -10 13 4 8 10 -3 19 -3 22 1 2 4 134 6 293 5 158 -1 392 -3 518 -4z
m-79 -52 c4 -3 11 -4 17 0 9 5 153 5 276 -1 31 -1 38 -21 9 -24 -30 -3 -773
-1 -908 3 -149 4 -144 3 -132 18 9 10 86 13 371 12 199 -1 364 -4 367 -8z
m281 -50 c24 -3 43 -16 27 -18 -5 -1 -20 -3 -34 -5 -25 -4 -301 -7 -310 -4
-17 6 -62 4 -66 -2 -3 -5 -10 -5 -17 -1 -6 3 -139 7 -296 8 -267 2 -328 6
-316 24 4 7 958 4 1012 -2z m-27 -51 c36 -5 37 -6 12 -16 -18 -8 -889 -5 -954
2 -11 2 -14 6 -8 13 7 8 145 10 467 8 252 -1 469 -5 483 -7z m-45 -50 c41 -5
43 -6 20 -16 -17 -6 -825 -5 -877 2 -11 1 -14 6 -8 13 6 7 136 10 422 8 227
-2 427 -5 443 -7z m-45 -46 c6 -3 20 -6 40 -9 8 -2 4 -6 -11 -10 -21 -7 -747
-5 -801 1 -20 3 -24 14 -7 20 11 4 771 2 779 -2z m-27 -53 c42 -7 42 -13 0
-17 -54 -4 -608 -4 -670 1 -36 3 -49 7 -42 15 7 8 107 11 347 9 185 -2 350 -5
365 -8z m-51 -49 c28 -4 11 -15 -29 -17 -64 -5 -456 -3 -498 2 -22 3 -51 6
-65 7 -22 1 -23 2 -6 9 17 7 549 6 598 -1z m-126 -51 c3 -3 13 -3 22 -1 14 5
15 4 2 -4 -13 -8 -364 -10 -395 -3 -5 2 1 6 15 10 30 8 348 7 356 -2z"/>
<path d="M13784 4266 c-3 -7 -4 -479 -2 -1047 4 -1152 2 -1114 75 -1323 88
-253 246 -471 454 -626 191 -142 444 -236 692 -255 l87 -7 0 324 0 324 -101
16 c-146 23 -246 74 -354 182 -84 83 -129 151 -168 253 l-22 58 -5 1055 -5
1055 -323 3 c-267 2 -323 0 -328 -12z"/>
<path d="M17030 3865 c0 -228 -2 -415 -4 -415 -3 0 -41 18 -86 40 -193 97
-380 135 -619 127 -131 -4 -175 -10 -274 -35 -137 -36 -307 -113 -425 -194
-106 -73 -255 -225 -329 -335 -153 -229 -223 -458 -224 -729 -1 -350 121 -658
360 -908 190 -197 424 -325 701 -382 105 -22 352 -25 460 -5 534 96 939 489
1062 1029 22 96 22 106 25 1160 l4 1062 -326 0 -325 0 0 -415z m-423 -570 c37
-9 83 -21 101 -26 l32 -11 1 -86 c2 -121 8 -140 49 -164 l35 -21 92 52 c50 28
97 51 105 51 15 0 158 -140 158 -155 0 -6 -25 -52 -55 -104 l-54 -94 20 -39
c11 -21 20 -38 22 -39 1 0 51 -4 110 -8 60 -5 113 -13 118 -18 12 -12 41 -157
37 -189 -2 -23 -18 -35 -93 -75 -92 -49 -103 -62 -104 -115 -1 -29 8 -39 89
-99 50 -37 90 -74 90 -84 0 -21 -56 -171 -69 -184 -6 -6 -46 -5 -109 2 -97 10
-132 8 -132 -9 0 -5 -12 -22 -26 -40 l-26 -31 41 -105 c23 -57 39 -109 36
-114 -9 -14 -153 -120 -164 -120 -4 0 -39 25 -76 55 -96 79 -99 80 -154 60
-25 -10 -51 -21 -56 -26 -6 -4 -19 -51 -30 -104 -10 -53 -23 -103 -29 -111 -8
-9 -40 -16 -101 -20 -104 -8 -103 -8 -130 76 -44 143 -40 137 -112 150 l-65
13 -79 -79 -80 -79 -75 39 c-108 58 -106 53 -78 166 13 52 24 102 24 110 0 9
-20 35 -44 59 l-44 43 -92 -21 c-137 -31 -129 -34 -178 66 l-43 86 81 82 82
83 -7 43 c-14 80 -16 83 -120 118 l-97 34 4 103 c1 56 6 105 9 108 3 4 53 15
110 26 57 11 108 26 115 32 6 7 18 32 27 55 l16 42 -57 78 c-32 43 -61 84 -66
90 -8 14 31 76 90 140 l39 42 99 -40 c106 -43 123 -44 170 -6 l29 24 -12 103
c-9 83 -9 106 1 116 18 16 174 66 195 62 9 -2 44 -41 78 -88 61 -84 62 -85
108 -88 l46 -3 37 73 c41 82 71 128 84 128 5 0 39 -7 77 -15z"/>
<path d="M16283 2920 c-220 -40 -407 -207 -476 -425 -16 -53 -21 -95 -21 -175
0 -171 57 -311 175 -429 118 -118 258 -175 429 -175 171 0 311 57 429 175 118
118 175 258 175 429 0 80 -5 122 -21 175 -60 191 -215 347 -402 406 -75 23
-214 32 -288 19z m280 -98 c150 -54 273 -176 329 -327 32 -86 32 -264 1 -348
-57 -152 -177 -273 -328 -329 -86 -32 -264 -32 -348 -1 -343 128 -466 535
-248 823 70 94 180 166 296 197 72 18 226 11 298 -15z"/>
<path d="M3761 3604 c-320 -54 -628 -243 -829 -509 -67 -88 -164 -280 -196
-388 -55 -179 -56 -201 -56 -978 l0 -719 320 0 320 0 0 643 c0 353 4 680 9
727 18 166 76 286 198 407 108 107 276 183 405 183 l48 0 0 325 0 325 -67 -1
c-38 -1 -106 -7 -152 -15z"/>
<path d="M5041 3604 c-320 -54 -628 -243 -829 -509 -67 -88 -164 -280 -196
-388 -57 -185 -73 -429 -41 -613 71 -403 334 -758 700 -941 194 -98 360 -136
585 -136 234 0 394 39 604 146 128 65 230 142 337 253 213 222 334 490 358
793 55 683 -417 1287 -1091 1396 -114 18 -314 18 -427 -1z m342 -743 c37 0 67
-4 67 -9 0 -7 -264 -8 -300 -2 -22 4 79 15 125 14 22 -1 70 -2 108 -3z m165
-49 c18 -1 31 -6 28 -11 -4 -5 -31 -8 -62 -7 -31 1 -58 -2 -61 -7 -3 -4 -10
-3 -17 2 -7 6 -15 8 -18 5 -7 -7 -178 -11 -178 -4 0 3 -42 5 -93 5 -97 -1
-124 4 -91 15 16 6 375 7 492 2z m1 -46 c91 -6 126 -20 58 -24 -82 -5 -576 1
-609 7 -5 0 -8 5 -8 9 0 5 16 9 36 10 20 1 38 3 40 4 4 5 392 0 483 -6z m81
-50 c25 -2 54 -4 64 -5 26 -2 13 -13 -21 -18 -26 -4 -414 -4 -640 0 -57 2
-107 7 -113 13 -8 8 0 11 26 12 20 1 38 3 40 5 4 3 582 -2 644 -7z m60 -50
c14 -2 34 -4 44 -5 26 -1 13 -13 -21 -18 -67 -10 -815 0 -833 12 -12 7 -10 10
10 15 26 6 757 3 800 -4z m30 -46 c7 -3 23 -7 38 -8 6 -1 12 -6 12 -11 0 -12
-911 -8 -930 4 -12 7 -10 10 10 15 22 6 857 5 870 0z m50 -53 c14 -3 28 -5 33
-6 4 0 7 -5 7 -10 0 -8 -953 -8 -970 -1 -6 3 -20 6 -40 9 -8 2 -4 6 10 10 25
7 914 5 960 -2z m43 -48 c20 0 23 -15 3 -22 -12 -5 -982 0 -1028 5 -11 2 -14
6 -7 14 6 8 145 10 511 7 277 -2 511 -4 521 -4z m-948 -39 c5 8 10 8 20 0 9
-8 15 -8 20 0 3 6 11 7 17 4 6 -4 211 -8 457 -10 245 -2 454 -5 463 -6 12 -2
14 -6 7 -14 -7 -8 -145 -11 -527 -9 -284 2 -517 4 -517 5 0 1 -10 3 -22 4 -33
4 -41 16 -12 18 43 2 47 3 55 11 4 4 13 2 20 -4 8 -7 14 -7 19 1z m530 -55
c479 -6 467 -5 462 -20 -4 -10 -995 -12 -1062 -2 -16 3 -33 5 -37 6 -5 0 -8 6
-8 12 0 5 3 8 8 5 4 -2 23 -1 41 3 19 3 64 5 100 4 36 -2 260 -5 496 -8z m477
-64 c9 -9 9 -12 1 -7 -6 3 -14 3 -17 -2 -4 -8 -1005 -6 -1071 1 -16 2 -37 5
-45 6 -13 1 -13 2 0 11 10 7 215 9 567 7 450 -2 555 -5 565 -16z m-382 -34
c336 -3 439 -11 370 -27 -25 -6 -964 -2 -1050 4 -25 2 -54 4 -64 5 -33 2 -7
15 42 21 26 3 112 4 192 3 80 -1 309 -4 510 -6z m-253 -50 c6 -4 14 -4 16 0 6
10 89 9 104 0 7 -4 14 -3 18 3 4 6 11 7 17 4 6 -4 113 -7 239 -8 165 -1 232
-5 241 -14 15 -15 36 -14 -352 -16 -178 -1 -320 2 -327 7 -8 6 -13 6 -13 0 0
-10 -241 -10 -258 1 -6 3 -14 2 -17 -4 -5 -8 -11 -8 -20 0 -9 8 -15 8 -20 0
-3 -6 -12 -7 -18 -3 -6 4 -25 8 -42 8 -72 4 -79 5 -69 14 5 5 20 11 34 13 49
6 455 2 467 -5z m373 -48 c118 -1 226 -5 240 -9 l25 -7 -30 -9 c-55 -15 -1063
-6 -1084 10 -11 9 -9 12 10 16 21 5 330 5 839 -1z m-25 -50 c127 -2 241 -6
255 -10 86 -23 -115 -27 -838 -18 -177 3 -236 7 -244 16 -8 10 -7 12 5 8 8 -4
17 -2 20 2 5 8 237 9 802 2z m120 -50 c61 -1 116 -4 123 -7 19 -7 14 -17 -10
-20 -33 -4 -794 -2 -913 2 -145 5 -139 4 -127 19 8 10 97 12 414 10 222 -1
453 -3 513 -4z m92 -52 c24 -3 43 -16 27 -18 -5 -1 -25 -3 -44 -6 -51 -6 -253
-9 -264 -4 -16 8 -98 6 -103 -2 -2 -4 -9 -4 -15 -1 -6 4 -137 8 -292 9 -155 1
-292 5 -306 10 l-25 9 25 6 c24 6 950 3 997 -3z m-35 -49 c38 -4 44 -15 11
-21 -24 -5 -917 -1 -950 4 -8 2 -9 6 -3 13 6 8 138 11 462 9 249 -2 465 -4
480 -5z m-37 -52 c42 -5 43 -6 18 -16 -19 -8 -815 -6 -875 2 -17 2 -23 10 -14
19 6 5 826 1 871 -5z m-40 -49 c48 -6 51 -8 24 -17 -23 -6 -732 -5 -801 2 -14
2 -30 7 -35 12 -4 5 -3 6 4 2 6 -3 14 -3 17 2 5 8 728 7 791 -1z m-38 -47 c27
0 39 -16 15 -19 -27 -3 -621 -4 -685 -1 -32 2 -61 8 -64 13 -3 6 -1 7 5 3 6
-3 13 -2 16 2 4 7 345 8 713 2z m-58 -55 c6 -7 -2 -11 -22 -14 -44 -5 -465 -3
-502 2 -16 3 -43 6 -60 7 -29 2 -29 2 -5 9 38 11 578 7 589 -4z m-94 -46 c16
0 17 -2 5 -9 -8 -4 -98 -7 -200 -6 -206 4 -200 3 -200 14 0 5 221 6 395 1z"/>
<path d="M9652 2903 c5 -799 6 -808 75 -1007 67 -193 154 -335 292 -480 190
-197 424 -325 701 -382 105 -22 352 -25 460 -5 534 96 940 490 1062 1029 21
94 22 120 25 830 l4 732 -325 0 -325 0 -4 -702 c-3 -518 -7 -716 -16 -753 -7
-27 -31 -88 -53 -135 -57 -119 -176 -239 -298 -299 -187 -92 -394 -92 -580 0
-114 57 -238 179 -293 289 -69 139 -67 116 -67 897 l0 703 -331 0 -331 0 4
-717z"/>
<path d="M12720 2315 l0 -1305 325 0 325 0 0 1305 0 1305 -325 0 -325 0 0
-1305z"/>
</g>
</svg>
