<svg version="1.0" xmlns="http://www.w3.org/2000/svg" preserveAspectRatio="xMidYMid meet" viewBox="268 1523.35 1500.1 375.85">  <g transform="translate(0.000000,2000.000000) scale(0.100000,-0.100000)" fill="#000000" stroke="none"> <path d="M12962 4760 c-165 -35 -298 -175 -320 -337 -31 -229 112 -425 339 -465 211 -37 424 118 462 336 30 179 -65 357 -235 436 -70 33 -173 45 -246 30z"/> <path d="M6784 4266 c-3 -7 -4 -479 -2 -1047 4 -1152 2 -1114 75 -1323 67 -193 154 -335 292 -480 190 -197 424 -325 701 -382 105 -22 352 -25 460 -5 534 96 955 505 1059 1029 71 357 2 691 -207 1007 -66 99 -229 260 -339 333 -246 163 -482 229 -782 219 -193 -6 -337 -40 -496 -116 l-105 -50 -2 412 -3 412 -323 3 c-267 2 -323 0 -328 -12z m1423 -1407 c29 -1 50 -5 48 -9 -3 -5 -282 -5 -310 0 -5 1 0 5 13 8 22 7 140 7 249 1z m136 -48 c54 -2 26 -17 -35 -18 -207 -4 -264 -5 -268 -3 -3 1 -50 3 -105 5 -115 4 -117 4 -90 14 16 7 377 8 498 2z m7 -45 c19 -3 47 -5 63 -5 43 -1 31 -16 -15 -19 -100 -5 -519 -1 -622 7 -32 2 -9 14 36 18 24 3 44 5 45 6 3 4 460 -3 493 -7z m55 -50 c33 -2 69 -5 79 -5 27 -1 13 -13 -21 -18 -41 -6 -739 0 -753 7 -3 1 -9 2 -13 1 -5 -1 -5 3 -2 9 4 6 13 9 20 6 7 -2 25 -2 39 2 27 7 547 6 651 -2z m60 -46 c0 -1 17 -3 37 -4 20 -1 40 -4 43 -8 9 -8 -32 -21 -44 -13 -5 3 -13 1 -16 -5 -5 -8 -11 -8 -20 0 -7 6 -15 7 -18 3 -3 -4 -38 -7 -79 -6 -40 1 -211 3 -380 5 -170 2 -308 7 -308 11 0 5 -9 5 -20 2 -11 -3 -20 -4 -20 -1 0 17 105 22 445 20 209 -1 380 -3 380 -4z m40 -51 c6 -3 25 -5 43 -5 32 1 43 -8 20 -17 -7 -2 -215 -3 -463 -2 -417 2 -534 8 -465 25 29 8 851 6 865 -1z m55 -53 c14 -2 31 -4 38 -5 7 0 11 -5 8 -10 -7 -11 -987 -8 -1005 3 -12 8 -11 11 5 16 19 7 908 4 954 -4z m40 -50 c36 -5 37 -6 14 -16 -25 -10 -992 -6 -1016 5 -10 4 -18 11 -18 15 0 7 971 4 1020 -4z m-885 -36 c0 -6 57 -4 61 2 3 5 10 5 17 1 6 -3 184 -7 396 -7 212 -1 391 -4 396 -7 6 -3 24 -5 42 -5 22 1 28 -2 22 -10 -6 -8 -161 -10 -531 -8 -288 1 -523 3 -523 4 0 1 -10 3 -22 4 -13 2 -26 6 -30 9 -6 7 5 9 74 12 18 0 35 3 37 6 4 4 61 3 61 -1z m455 -55 c542 -6 488 -4 496 -17 4 -6 2 -8 -4 -4 -6 3 -13 2 -16 -2 -5 -8 -1013 -6 -1066 2 -14 2 -28 4 -32 5 -5 0 -8 6 -8 12 0 6 6 9 14 6 8 -3 27 -2 42 2 15 4 48 6 73 4 25 -2 251 -5 501 -8z m492 -64 c8 -9 8 -11 1 -7 -6 3 -14 2 -17 -2 -5 -8 -1012 -7 -1066 2 -14 2 -34 4 -45 5 -17 1 -18 3 -5 11 10 7 213 9 567 8 457 -3 554 -5 565 -17z m-369 -34 c227 -2 361 -7 367 -13 7 -7 5 -11 -7 -13 -22 -3 -907 -3 -1013 0 -41 1 -86 5 -100 9 l-25 7 25 6 c42 11 79 12 240 10 85 -2 316 -4 513 -6z m119 -49 c186 -3 240 -6 250 -17 8 -9 9 -11 1 -7 -6 3 -14 3 -17 -2 -6 -10 -757 -9 -773 1 -6 4 -14 4 -17 -1 -5 -9 -47 -9 -63 1 -7 4 -15 3 -18 -3 -5 -8 -11 -8 -20 0 -10 8 -15 8 -20 0 -5 -8 -10 -8 -20 0 -10 8 -15 8 -20 0 -5 -8 -10 -8 -20 0 -9 8 -15 8 -20 0 -3 -6 -12 -7 -18 -3 -6 4 -25 8 -42 8 -78 4 -81 5 -62 16 9 5 21 8 26 4 5 -3 12 -2 14 2 5 8 311 8 839 1z m60 -50 c104 -2 181 -7 187 -13 14 -14 8 -15 -294 -16 -480 -2 -799 4 -814 15 -11 9 -9 12 9 16 23 5 565 4 912 -2z m-87 -49 c127 -1 241 -5 255 -9 67 -19 -61 -26 -380 -23 -662 6 -699 8 -712 22 -11 12 -10 13 4 8 10 -3 19 -3 22 1 2 4 134 6 293 5 158 -1 392 -3 518 -4z m-79 -52 c4 -3 11 -4 17 0 9 5 153 5 276 -1 31 -1 38 -21 9 -24 -30 -3 -773 -1 -908 3 -149 4 -144 3 -132 18 9 10 86 13 371 12 199 -1 364 -4 367 -8z m281 -50 c24 -3 43 -16 27 -18 -5 -1 -20 -3 -34 -5 -25 -4 -301 -7 -310 -4 -17 6 -62 4 -66 -2 -3 -5 -10 -5 -17 -1 -6 3 -139 7 -296 8 -267 2 -328 6 -316 24 4 7 958 4 1012 -2z m-27 -51 c36 -5 37 -6 12 -16 -18 -8 -889 -5 -954 2 -11 2 -14 6 -8 13 7 8 145 10 467 8 252 -1 469 -5 483 -7z m-45 -50 c41 -5 43 -6 20 -16 -17 -6 -825 -5 -877 2 -11 1 -14 6 -8 13 6 7 136 10 422 8 227 -2 427 -5 443 -7z m-45 -46 c6 -3 20 -6 40 -9 8 -2 4 -6 -11 -10 -21 -7 -747 -5 -801 1 -20 3 -24 14 -7 20 11 4 771 2 779 -2z m-27 -53 c42 -7 42 -13 0 -17 -54 -4 -608 -4 -670 1 -36 3 -49 7 -42 15 7 8 107 11 347 9 185 -2 350 -5 365 -8z m-51 -49 c28 -4 11 -15 -29 -17 -64 -5 -456 -3 -498 2 -22 3 -51 6 -65 7 -22 1 -23 2 -6 9 17 7 549 6 598 -1z m-126 -51 c3 -3 13 -3 22 -1 14 5 15 4 2 -4 -13 -8 -364 -10 -395 -3 -5 2 1 6 15 10 30 8 348 7 356 -2z"/> <path d="M13784 4266 c-3 -7 -4 -479 -2 -1047 4 -1152 2 -1114 75 -1323 88 -253 246 -471 454 -626 191 -142 444 -236 692 -255 l87 -7 0 324 0 324 -101 16 c-146 23 -246 74 -354 182 -84 83 -129 151 -168 253 l-22 58 -5 1055 -5 1055 -323 3 c-267 2 -323 0 -328 -12z"/> <path d="M17030 3865 c0 -228 -2 -415 -4 -415 -3 0 -41 18 -86 40 -193 97 -380 135 -619 127 -131 -4 -175 -10 -274 -35 -137 -36 -307 -113 -425 -194 -106 -73 -255 -225 -329 -335 -153 -229 -223 -458 -224 -729 -1 -350 121 -658 360 -908 190 -197 424 -325 701 -382 105 -22 352 -25 460 -5 534 96 939 489 1062 1029 22 96 22 106 25 1160 l4 1062 -326 0 -325 0 0 -415z m-423 -570 c37 -9 83 -21 101 -26 l32 -11 1 -86 c2 -121 8 -140 49 -164 l35 -21 92 52 c50 28 97 51 105 51 15 0 158 -140 158 -155 0 -6 -25 -52 -55 -104 l-54 -94 20 -39 c11 -21 20 -38 22 -39 1 0 51 -4 110 -8 60 -5 113 -13 118 -18 12 -12 41 -157 37 -189 -2 -23 -18 -35 -93 -75 -92 -49 -103 -62 -104 -115 -1 -29 8 -39 89 -99 50 -37 90 -74 90 -84 0 -21 -56 -171 -69 -184 -6 -6 -46 -5 -109 2 -97 10 -132 8 -132 -9 0 -5 -12 -22 -26 -40 l-26 -31 41 -105 c23 -57 39 -109 36 -114 -9 -14 -153 -120 -164 -120 -4 0 -39 25 -76 55 -96 79 -99 80 -154 60 -25 -10 -51 -21 -56 -26 -6 -4 -19 -51 -30 -104 -10 -53 -23 -103 -29 -111 -8 -9 -40 -16 -101 -20 -104 -8 -103 -8 -130 76 -44 143 -40 137 -112 150 l-65 13 -79 -79 -80 -79 -75 39 c-108 58 -106 53 -78 166 13 52 24 102 24 110 0 9 -20 35 -44 59 l-44 43 -92 -21 c-137 -31 -129 -34 -178 66 l-43 86 81 82 82 83 -7 43 c-14 80 -16 83 -120 118 l-97 34 4 103 c1 56 6 105 9 108 3 4 53 15 110 26 57 11 108 26 115 32 6 7 18 32 27 55 l16 42 -57 78 c-32 43 -61 84 -66 90 -8 14 31 76 90 140 l39 42 99 -40 c106 -43 123 -44 170 -6 l29 24 -12 103 c-9 83 -9 106 1 116 18 16 174 66 195 62 9 -2 44 -41 78 -88 61 -84 62 -85 108 -88 l46 -3 37 73 c41 82 71 128 84 128 5 0 39 -7 77 -15z"/> <path d="M16283 2920 c-220 -40 -407 -207 -476 -425 -16 -53 -21 -95 -21 -175 0 -171 57 -311 175 -429 118 -118 258 -175 429 -175 171 0 311 57 429 175 118 118 175 258 175 429 0 80 -5 122 -21 175 -60 191 -215 347 -402 406 -75 23 -214 32 -288 19z m280 -98 c150 -54 273 -176 329 -327 32 -86 32 -264 1 -348 -57 -152 -177 -273 -328 -329 -86 -32 -264 -32 -348 -1 -343 128 -466 535 -248 823 70 94 180 166 296 197 72 18 226 11 298 -15z"/> <path d="M3761 3604 c-320 -54 -628 -243 -829 -509 -67 -88 -164 -280 -196 -388 -55 -179 -56 -201 -56 -978 l0 -719 320 0 320 0 0 643 c0 353 4 680 9 727 18 166 76 286 198 407 108 107 276 183 405 183 l48 0 0 325 0 325 -67 -1 c-38 -1 -106 -7 -152 -15z"/> <path d="M5041 3604 c-320 -54 -628 -243 -829 -509 -67 -88 -164 -280 -196 -388 -57 -185 -73 -429 -41 -613 71 -403 334 -758 700 -941 194 -98 360 -136 585 -136 234 0 394 39 604 146 128 65 230 142 337 253 213 222 334 490 358 793 55 683 -417 1287 -1091 1396 -114 18 -314 18 -427 -1z m342 -743 c37 0 67 -4 67 -9 0 -7 -264 -8 -300 -2 -22 4 79 15 125 14 22 -1 70 -2 108 -3z m165 -49 c18 -1 31 -6 28 -11 -4 -5 -31 -8 -62 -7 -31 1 -58 -2 -61 -7 -3 -4 -10 -3 -17 2 -7 6 -15 8 -18 5 -7 -7 -178 -11 -178 -4 0 3 -42 5 -93 5 -97 -1 -124 4 -91 15 16 6 375 7 492 2z m1 -46 c91 -6 126 -20 58 -24 -82 -5 -576 1 -609 7 -5 0 -8 5 -8 9 0 5 16 9 36 10 20 1 38 3 40 4 4 5 392 0 483 -6z m81 -50 c25 -2 54 -4 64 -5 26 -2 13 -13 -21 -18 -26 -4 -414 -4 -640 0 -57 2 -107 7 -113 13 -8 8 0 11 26 12 20 1 38 3 40 5 4 3 582 -2 644 -7z m60 -50 c14 -2 34 -4 44 -5 26 -1 13 -13 -21 -18 -67 -10 -815 0 -833 12 -12 7 -10 10 10 15 26 6 757 3 800 -4z m30 -46 c7 -3 23 -7 38 -8 6 -1 12 -6 12 -11 0 -12 -911 -8 -930 4 -12 7 -10 10 10 15 22 6 857 5 870 0z m50 -53 c14 -3 28 -5 33 -6 4 0 7 -5 7 -10 0 -8 -953 -8 -970 -1 -6 3 -20 6 -40 9 -8 2 -4 6 10 10 25 7 914 5 960 -2z m43 -48 c20 0 23 -15 3 -22 -12 -5 -982 0 -1028 5 -11 2 -14 6 -7 14 6 8 145 10 511 7 277 -2 511 -4 521 -4z m-948 -39 c5 8 10 8 20 0 9 -8 15 -8 20 0 3 6 11 7 17 4 6 -4 211 -8 457 -10 245 -2 454 -5 463 -6 12 -2 14 -6 7 -14 -7 -8 -145 -11 -527 -9 -284 2 -517 4 -517 5 0 1 -10 3 -22 4 -33 4 -41 16 -12 18 43 2 47 3 55 11 4 4 13 2 20 -4 8 -7 14 -7 19 1z m530 -55 c479 -6 467 -5 462 -20 -4 -10 -995 -12 -1062 -2 -16 3 -33 5 -37 6 -5 0 -8 6 -8 12 0 5 3 8 8 5 4 -2 23 -1 41 3 19 3 64 5 100 4 36 -2 260 -5 496 -8z m477 -64 c9 -9 9 -12 1 -7 -6 3 -14 3 -17 -2 -4 -8 -1005 -6 -1071 1 -16 2 -37 5 -45 6 -13 1 -13 2 0 11 10 7 215 9 567 7 450 -2 555 -5 565 -16z m-382 -34 c336 -3 439 -11 370 -27 -25 -6 -964 -2 -1050 4 -25 2 -54 4 -64 5 -33 2 -7 15 42 21 26 3 112 4 192 3 80 -1 309 -4 510 -6z m-253 -50 c6 -4 14 -4 16 0 6 10 89 9 104 0 7 -4 14 -3 18 3 4 6 11 7 17 4 6 -4 113 -7 239 -8 165 -1 232 -5 241 -14 15 -15 36 -14 -352 -16 -178 -1 -320 2 -327 7 -8 6 -13 6 -13 0 0 -10 -241 -10 -258 1 -6 3 -14 2 -17 -4 -5 -8 -11 -8 -20 0 -9 8 -15 8 -20 0 -3 -6 -12 -7 -18 -3 -6 4 -25 8 -42 8 -72 4 -79 5 -69 14 5 5 20 11 34 13 49 6 455 2 467 -5z m373 -48 c118 -1 226 -5 240 -9 l25 -7 -30 -9 c-55 -15 -1063 -6 -1084 10 -11 9 -9 12 10 16 21 5 330 5 839 -1z m-25 -50 c127 -2 241 -6 255 -10 86 -23 -115 -27 -838 -18 -177 3 -236 7 -244 16 -8 10 -7 12 5 8 8 -4 17 -2 20 2 5 8 237 9 802 2z m120 -50 c61 -1 116 -4 123 -7 19 -7 14 -17 -10 -20 -33 -4 -794 -2 -913 2 -145 5 -139 4 -127 19 8 10 97 12 414 10 222 -1 453 -3 513 -4z m92 -52 c24 -3 43 -16 27 -18 -5 -1 -25 -3 -44 -6 -51 -6 -253 -9 -264 -4 -16 8 -98 6 -103 -2 -2 -4 -9 -4 -15 -1 -6 4 -137 8 -292 9 -155 1 -292 5 -306 10 l-25 9 25 6 c24 6 950 3 997 -3z m-35 -49 c38 -4 44 -15 11 -21 -24 -5 -917 -1 -950 4 -8 2 -9 6 -3 13 6 8 138 11 462 9 249 -2 465 -4 480 -5z m-37 -52 c42 -5 43 -6 18 -16 -19 -8 -815 -6 -875 2 -17 2 -23 10 -14 19 6 5 826 1 871 -5z m-40 -49 c48 -6 51 -8 24 -17 -23 -6 -732 -5 -801 2 -14 2 -30 7 -35 12 -4 5 -3 6 4 2 6 -3 14 -3 17 2 5 8 728 7 791 -1z m-38 -47 c27 0 39 -16 15 -19 -27 -3 -621 -4 -685 -1 -32 2 -61 8 -64 13 -3 6 -1 7 5 3 6 -3 13 -2 16 2 4 7 345 8 713 2z m-58 -55 c6 -7 -2 -11 -22 -14 -44 -5 -465 -3 -502 2 -16 3 -43 6 -60 7 -29 2 -29 2 -5 9 38 11 578 7 589 -4z m-94 -46 c16 0 17 -2 5 -9 -8 -4 -98 -7 -200 -6 -206 4 -200 3 -200 14 0 5 221 6 395 1z"/> <path d="M9652 2903 c5 -799 6 -808 75 -1007 67 -193 154 -335 292 -480 190 -197 424 -325 701 -382 105 -22 352 -25 460 -5 534 96 940 490 1062 1029 21 94 22 120 25 830 l4 732 -325 0 -325 0 -4 -702 c-3 -518 -7 -716 -16 -753 -7 -27 -31 -88 -53 -135 -57 -119 -176 -239 -298 -299 -187 -92 -394 -92 -580 0 -114 57 -238 179 -293 289 -69 139 -67 116 -67 897 l0 703 -331 0 -331 0 4 -717z"/> <path d="M12720 2315 l0 -1305 325 0 325 0 0 1305 0 1305 -325 0 -325 0 0 -1305z"/> </g> </svg>